<svg width="30" height="25" viewBox="0 0 30 25" fill="none" xmlns="http://www.w3.org/2000/svg">
<path d="M24.828 17.6833H27.226V22.8778H24.828V17.6833ZM21.231 15.0861H23.629V22.8778H21.231V15.0861ZM17.634 17.1639H20.032V22.8778H17.634V17.1639ZM14.037 13.0083H16.435V22.8778H14.037V13.0083ZM10.44 14.5667H12.838V22.8778H10.44V14.5667ZM6.84297 12.4889H9.24097V22.8778H6.84297V12.4889ZM3.24597 9.89167H5.64397V22.8778H3.24597V9.89167Z" fill="#F44336"/>
<path d="M21.231 6.87889L18.833 8.95667L12.838 3.76222L9.84051 6.35944L5.28431 2.41167L3.60571 3.86611L9.84051 9.26833L12.838 6.67111L18.833 11.8656L21.231 9.78778L24.888 12.9564L26.5666 11.5019L21.231 6.87889Z" fill="#D32F2F"/>
<path d="M27.2261 13.5278H21.8306L27.2261 8.85278V13.5278Z" fill="#D32F2F"/>
</svg>
