<svg width="29" height="25" viewBox="0 0 29 25" fill="none" xmlns="http://www.w3.org/2000/svg">
<path d="M23.648 10.9306H25.98V22.8778H23.648V10.9306ZM20.15 14.5667H22.482V22.8778H20.15V14.5667ZM16.652 11.9694H18.984V22.8778H16.652V11.9694ZM13.154 15.0861H15.486V22.8778H13.154V15.0861ZM9.65603 16.6444H11.988V22.8778H9.65603V16.6444ZM6.15803 15.6056H8.49003V22.8778H6.15803V15.6056ZM2.66003 17.6833H4.99203V22.8778H2.66003V17.6833Z" fill="#4CAF50"/>
<path d="M23.7063 4.74917L20.15 7.91778L17.818 5.84L11.988 11.0344L9.07297 8.43722L3.00977 13.8394L4.64217 15.2939L9.07297 11.3461L11.988 13.9433L17.818 8.74889L20.15 10.8267L25.3387 6.20361L23.7063 4.74917Z" fill="#388E3C"/>
<path d="M25.9799 4.17778H20.7329L25.9799 8.85278V4.17778Z" fill="#388E3C"/>
</svg>
