<svg width="16" height="16" viewBox="0 0 16 16" fill="none" xmlns="http://www.w3.org/2000/svg">
<path d="M8.25 9.5C8.08424 9.5 7.92527 9.43415 7.80806 9.31694C7.69085 9.19973 7.625 9.04076 7.625 8.875L7.625 5.125C7.625 4.95924 7.69085 4.80027 7.80806 4.68306C7.92527 4.56585 8.08424 4.5 8.25 4.5C8.41576 4.5 8.57473 4.56585 8.69194 4.68306C8.80915 4.80027 8.875 4.95924 8.875 5.125V8.875C8.875 9.04076 8.80915 9.19973 8.69194 9.31694C8.57473 9.43415 8.41576 9.5 8.25 9.5ZM8.25 10.4375C8.12689 10.4375 8.00498 10.4617 7.89123 10.5089C7.77749 10.556 7.67414 10.625 7.58709 10.7121C7.50003 10.7991 7.43098 10.9025 7.38386 11.0162C7.33675 11.13 7.3125 11.2519 7.3125 11.375C7.3125 11.4981 7.33675 11.62 7.38386 11.7338C7.43098 11.8475 7.50003 11.9509 7.58709 12.0379C7.67414 12.125 7.77749 12.194 7.89123 12.2411C8.00498 12.2883 8.12689 12.3125 8.25 12.3125C8.49831 12.3125 8.73645 12.2139 8.91203 12.0383C9.08761 11.8627 9.18625 11.6246 9.18625 11.3762C9.18625 11.1279 9.08761 10.8898 8.91203 10.7142C8.73645 10.5386 8.49831 10.44 8.25 10.44V10.4375ZM15.75 8.25C15.75 9.23491 15.556 10.2102 15.1791 11.1201C14.8022 12.0301 14.2497 12.8569 13.5533 13.5533C12.8569 14.2497 12.0301 14.8022 11.1201 15.1791C10.2102 15.556 9.23491 15.75 8.25 15.75C7.26509 15.75 6.28982 15.556 5.37987 15.1791C4.46993 14.8022 3.64314 14.2497 2.9467 13.5533C2.25026 12.8569 1.69781 12.0301 1.3209 11.1201C0.943994 10.2102 0.75 9.23491 0.75 8.25C0.75 6.26088 1.54018 4.35322 2.9467 2.9467C4.35322 1.54018 6.26088 0.75 8.25 0.75C10.2391 0.75 12.1468 1.54018 13.5533 2.9467C14.9598 4.35322 15.75 6.26088 15.75 8.25ZM8.25 14.5C9.9076 14.5 11.4973 13.8415 12.6694 12.6694C13.8415 11.4973 14.5 9.9076 14.5 8.25C14.5 6.5924 13.8415 5.00268 12.6694 3.83058C11.4973 2.65848 9.9076 2 8.25 2C6.5924 2 5.00268 2.65848 3.83058 3.83058C2.65848 5.00268 2 6.5924 2 8.25C2 9.9076 2.65848 11.4973 3.83058 12.6694C5.00268 13.8415 6.5924 14.5 8.25 14.5Z" fill="#7C7676"/>
</svg>
