<svg width="14" height="5" viewBox="0 0 14 5" fill="none" xmlns="http://www.w3.org/2000/svg">
<path fill-rule="evenodd" clip-rule="evenodd" d="M13.4615 4.8951C13.4151 4.92835 13.3599 4.95473 13.2992 4.97273C13.2384 4.99073 13.1733 5 13.1076 5C13.0418 5 12.9767 4.99073 12.916 4.97273C12.8552 4.95473 12.8 4.92835 12.7536 4.8951L7.10827 0.862561L1.46293 4.8951C1.41645 4.9283 1.36126 4.95463 1.30053 4.9726C1.2398 4.99057 1.17471 4.99981 1.10897 4.99981C1.04323 4.99981 0.978141 4.99057 0.917409 4.9726C0.856676 4.95463 0.801495 4.9283 0.755012 4.8951C0.708529 4.86191 0.671658 4.82249 0.646502 4.77912C0.621345 4.73575 0.608397 4.68926 0.608397 4.64231C0.608397 4.59536 0.621345 4.54887 0.646502 4.5055C0.671658 4.46213 0.708529 4.42271 0.755012 4.38952L6.75431 0.104897C6.80075 0.0716457 6.85592 0.0452652 6.91666 0.0272655C6.97739 0.00926542 7.04251 0 7.10827 0C7.17403 0 7.23914 0.00926542 7.29988 0.0272655C7.36062 0.0452652 7.41579 0.0716457 7.46223 0.104897L13.4615 4.38952C13.5081 4.42268 13.545 4.46209 13.5702 4.50546C13.5954 4.54884 13.6084 4.59535 13.6084 4.64231C13.6084 4.68927 13.5954 4.73578 13.5702 4.77916C13.545 4.82253 13.5081 4.86194 13.4615 4.8951Z" fill="black"/>
</svg>
