<svg width="14" height="8" viewBox="0 0 14 8" fill="none" xmlns="http://www.w3.org/2000/svg">
<path fill-rule="evenodd" clip-rule="evenodd" d="M0.646039 0.646039C0.692485 0.599476 0.747661 0.562533 0.808406 0.537326C0.869151 0.51212 0.934272 0.499146 1.00004 0.499146C1.06581 0.499146 1.13093 0.51212 1.19167 0.537326C1.25242 0.562533 1.30759 0.599476 1.35404 0.646039L7.00004 6.29304L12.646 0.646039C12.6925 0.599551 12.7477 0.562675 12.8085 0.537516C12.8692 0.512357 12.9343 0.499407 13 0.499407C13.0658 0.499407 13.1309 0.512357 13.1916 0.537516C13.2524 0.562675 13.3076 0.599551 13.354 0.646039C13.4005 0.692527 13.4374 0.747716 13.4626 0.808455C13.4877 0.869195 13.5007 0.934295 13.5007 1.00004C13.5007 1.06578 13.4877 1.13088 13.4626 1.19162C13.4374 1.25236 13.4005 1.30755 13.354 1.35404L7.35404 7.35404C7.30759 7.4006 7.25242 7.43754 7.19167 7.46275C7.13093 7.48796 7.06581 7.50093 7.00004 7.50093C6.93427 7.50093 6.86915 7.48796 6.80841 7.46275C6.74766 7.43754 6.69248 7.4006 6.64604 7.35404L0.646039 1.35404C0.599476 1.30759 0.562533 1.25242 0.537327 1.19167C0.51212 1.13093 0.499146 1.06581 0.499146 1.00004C0.499146 0.934272 0.51212 0.869151 0.537327 0.808405C0.562533 0.74766 0.599476 0.692485 0.646039 0.646039Z" fill="black"/>
</svg>
