<svg width="7" height="15" viewBox="0 0 7 15" fill="none" xmlns="http://www.w3.org/2000/svg">
<path d="M0.74112 0.385805C0.651065 0.507305 0.579619 0.651625 0.530871 0.810502C0.482123 0.969379 0.457031 1.13969 0.457031 1.3117C0.457031 1.4837 0.482123 1.65402 0.530871 1.81289C0.579619 1.97177 0.651065 2.11609 0.74112 2.23759L4.51026 7.33329L0.74112 12.429C0.559485 12.6745 0.457443 13.0076 0.457443 13.3549C0.457443 13.7022 0.559485 14.0352 0.74112 14.2808C0.922755 14.5263 1.16911 14.6643 1.42598 14.6643C1.68285 14.6643 1.9292 14.5263 2.11083 14.2808L6.56969 8.25261C6.65975 8.13111 6.73119 7.98679 6.77994 7.82792C6.82869 7.66904 6.85378 7.49872 6.85378 7.32672C6.85378 7.15472 6.82869 6.9844 6.77994 6.82552C6.73119 6.66665 6.65975 6.52233 6.56969 6.40083L2.11083 0.372671C1.74169 -0.126392 1.11998 -0.126391 0.74112 0.385805Z" fill="#6EFDD1"/>
</svg>
