<svg width="20" height="22" viewBox="0 0 20 22" fill="none" xmlns="http://www.w3.org/2000/svg">
<path fill-rule="evenodd" clip-rule="evenodd" d="M3.10675 18.0355C8.2405 17.2855 11.7752 17.35 16.9157 18.0618C17.288 18.1157 17.6282 18.3026 17.8734 18.5878C18.1187 18.873 18.2524 19.2373 18.25 19.6135C18.25 19.9735 18.1262 20.323 17.9027 20.596C17.5132 21.072 17.1141 21.5401 16.7057 22H18.6865C18.811 21.8515 18.9362 21.7 19.063 21.5463C19.5079 21.0007 19.7506 20.3182 19.75 19.6143C19.75 18.0955 18.6415 16.7868 17.1212 16.5768C11.8592 15.8485 8.18125 15.7788 2.89 16.552C1.354 16.7763 0.25 18.1053 0.25 19.6345C0.25 20.3133 0.47125 20.9845 0.8905 21.5282C1.01425 21.6888 1.1365 21.8463 1.258 22.0008H3.19075C2.81082 21.5459 2.44024 21.0833 2.07925 20.6133C1.86472 20.3319 1.74899 19.9876 1.75 19.6338C1.75 18.826 2.3305 18.1488 3.10675 18.0355ZM10 10.75C10.5909 10.75 11.1761 10.6336 11.7221 10.4075C12.268 10.1813 12.7641 9.84985 13.182 9.43198C13.5998 9.01412 13.9313 8.51804 14.1575 7.97208C14.3836 7.42611 14.5 6.84095 14.5 6.25C14.5 5.65905 14.3836 5.07389 14.1575 4.52793C13.9313 3.98196 13.5998 3.48588 13.182 3.06802C12.7641 2.65016 12.268 2.31869 11.7221 2.09254C11.1761 1.8664 10.5909 1.75 10 1.75C8.80653 1.75 7.66193 2.22411 6.81802 3.06802C5.9741 3.91193 5.5 5.05653 5.5 6.25C5.5 7.44347 5.9741 8.58807 6.81802 9.43198C7.66193 10.2759 8.80653 10.75 10 10.75ZM10 12.25C11.5913 12.25 13.1174 11.6179 14.2426 10.4926C15.3679 9.36742 16 7.8413 16 6.25C16 4.6587 15.3679 3.13258 14.2426 2.00736C13.1174 0.882141 11.5913 0.25 10 0.25C8.4087 0.25 6.88258 0.882141 5.75736 2.00736C4.63214 3.13258 4 4.6587 4 6.25C4 7.8413 4.63214 9.36742 5.75736 10.4926C6.88258 11.6179 8.4087 12.25 10 12.25Z" fill="url(#paint0_linear_1105_202)"/>
<defs>
<linearGradient id="paint0_linear_1105_202" x1="-0.0750001" y1="0.975025" x2="19.7053" y2="18.3861" gradientUnits="userSpaceOnUse">
<stop stop-color="#6EFDD1"/>
<stop offset="1" stop-color="#94FFA6"/>
</linearGradient>
</defs>
</svg>
