<svg width="22" height="23" viewBox="0 0 22 23" fill="none" xmlns="http://www.w3.org/2000/svg">
<path d="M17.7986 18.2284L20.8381 21.5445C20.9799 21.7047 21.0583 21.9193 21.0565 22.142C21.0547 22.3647 20.9729 22.5777 20.8286 22.7352C20.6843 22.8927 20.4892 22.982 20.2851 22.984C20.0811 22.9859 19.8845 22.9003 19.7378 22.7456L16.6982 19.4278C14.7119 21.2853 12.1437 22.231 9.53249 22.0662C6.92125 21.9014 4.46996 20.6391 2.693 18.5441C0.916042 16.4491 -0.0484632 13.6843 0.00187581 10.8298C0.0522148 7.97529 1.11348 5.25302 2.96299 3.23422C4.8125 1.21541 7.30647 0.0569944 9.92159 0.00204752C12.5367 -0.0528994 15.0697 0.999894 16.989 2.93951C18.9083 4.87913 20.0648 7.5548 20.2157 10.4051C20.3666 13.2553 19.5003 16.0586 17.7986 18.2267V18.2284ZM10.1164 20.3859C12.3866 20.3859 14.5639 19.4015 16.1692 17.6493C17.7745 15.897 18.6763 13.5205 18.6763 11.0424C18.6763 8.56439 17.7745 6.18784 16.1692 4.4356C14.5639 2.68335 12.3866 1.69895 10.1164 1.69895C7.84617 1.69895 5.66892 2.68335 4.06362 4.4356C2.45832 6.18784 1.55648 8.56439 1.55648 11.0424C1.55648 13.5205 2.45832 15.897 4.06362 17.6493C5.66892 19.4015 7.84617 20.3859 10.1164 20.3859Z" fill="#313D4C"/>
</svg>
